<svg xmlns="http://www.w3.org/2000/svg" viewBox="0 0 128 128">
  <defs>
    <linearGradient id="g" x1="0%" y1="0%" x2="100%" y2="100%">
      <stop offset="0%" stop-color="#22c55e"/>
      <stop offset="100%" stop-color="#16a34a"/>
    </linearGradient>
  </defs>
  <rect x="4" y="4" width="120" height="120" rx="24" fill="url(#g)"/>
  <path d="M34 76c0-3.3 2.7-6 6-6h48c3.3 0 6 2.7 6 6v2c0 3.3-2.7 6-6 6H40c-3.3 0-6-2.7-6-6v-2Z" fill="#ecfdf3"/>
  <path d="M62 50c0-3.3 2.7-6 6-6h20c3.3 0 6 2.7 6 6v2c0 3.3-2.7 6-6 6H68c-3.3 0-6-2.7-6-6v-2Z" fill="#dcfce7"/>
  <text x="24" y="88" font-family="Segoe UI, Arial, sans-serif" font-size="38" font-weight="700" fill="#ecfdf3">WS</text>
</svg>
